<?xml version="1.0" encoding="UTF-8"?>
<svg version="1.1" xmlns="http://www.w3.org/2000/svg" width="512" height="512">
<path d="M0 0 C5.91054224 5.47872181 10.38177243 11.45830436 14.125 18.5625 C14.98445912 20.15110555 15.84659075 21.73826721 16.7109375 23.32421875 C17.40461426 24.59724854 17.40461426 24.59724854 18.11230469 25.89599609 C20.90702506 30.93785928 23.83428854 35.90246581 26.75 40.875 C27.3483667 41.89956299 27.9467334 42.92412598 28.56323242 43.97973633 C31.11438382 48.34715259 33.67210006 52.70996159 36.26171875 57.0546875 C36.98710618 58.28638354 37.71237887 59.51814717 38.4375 60.75 C39.04207031 61.76320313 39.64664062 62.77640625 40.26953125 63.8203125 C41.7601079 66.90456044 42.49315448 69.1970164 42.625 72.625 C40.89011251 76.5753857 38.44950792 78.82931197 35.125 81.5 C30.32920082 85.69534952 28.02102812 88.95412393 27.3203125 95.44921875 C26.99325092 103.11592692 28.0720727 108.48777166 33.09765625 114.33984375 C37.51733768 118.61324731 42.53320979 120.85446106 48.625 121.625 C53.13798385 121.29046195 57.17902978 120.26391707 61.3125 118.4375 C64.77174049 117.22209118 67.12238321 117.66974087 70.625 118.625 C73.48961198 121.78969108 75.65991426 125.18833278 77.76953125 128.88671875 C78.6505249 130.42283813 78.6505249 130.42283813 79.54931641 131.98999023 C80.48396729 133.63463257 80.48396729 133.63463257 81.4375 135.3125 C82.43274575 137.05350311 83.4280011 138.79450082 84.42382812 140.53517151 C85.1115485 141.73768947 85.79871661 142.94052343 86.48535156 144.1436615 C88.89014541 148.35433652 91.32261309 152.54806331 93.76953125 156.734375 C94.44373784 157.89095361 95.11781177 159.04760956 95.79174805 160.2043457 C97.06167528 162.38211021 98.33506779 164.55785913 99.61254883 166.73120117 C107.2461299 179.86651919 113.06889654 191.50327315 109.94140625 207.015625 C107.9938782 213.96531014 105.51353797 219.31543962 100.625 224.625 C100.06554687 225.25148438 99.50609375 225.87796875 98.9296875 226.5234375 C95.97805257 229.66037686 94.09093987 231.45286935 89.9453125 232.984375 C88.01964127 233.9226031 88.01964127 233.9226031 86.625 235.625 C85.66877538 240.11441358 85.83021729 244.55237262 85.9375 249.125 C85.97195713 251.57273267 85.98961023 254.02077517 85.98828125 256.46875 C86.01188721 257.55349609 86.03549316 258.63824219 86.05981445 259.75585938 C85.51799637 263.33106778 84.4519182 264.44324233 81.625 266.625 C78.6015625 267.53125 78.6015625 267.53125 75.25 268.125 C70.03936384 269.18350185 66.77114032 270.37532245 62.625 273.625 C61.965 273.625 61.305 273.625 60.625 273.625 C59.93725595 274.94758472 59.27788627 276.28486503 58.625 277.625 C58.08875 278.615 57.5525 279.605 57 280.625 C54.60664057 286.33224172 54.42717625 293.24735286 56.4921875 299.0703125 C57.51835309 301.16352743 57.51835309 301.16352743 58.65234375 303.00390625 C59.625 304.625 59.625 304.625 60.625 307.625 C62.32269234 308.72668984 62.32269234 308.72668984 64.625 309.625 C66.11 310.3365625 66.11 310.3365625 67.625 311.0625 C71.93679236 312.93188275 76.46691364 313.81501442 81.05078125 314.78125 C83.625 315.625 83.625 315.625 85.625 318.625 C85.82901081 321.07378156 85.91873604 323.40980021 85.91552734 325.859375 C85.92224457 326.59316879 85.92896179 327.32696259 85.93588257 328.08299255 C85.95490627 330.51373039 85.95879018 332.94419228 85.9609375 335.375 C85.9673669 337.07072054 85.97409536 338.76643998 85.98110962 340.4621582 C85.99309648 344.02313808 85.99678945 347.5840209 85.99560547 351.14501953 C85.99540323 355.68305089 86.02260011 360.22044929 86.05714989 364.7583313 C86.07952737 368.26563299 86.08343956 371.77278563 86.08238602 375.28015137 C86.08472974 376.95131594 86.09348317 378.6224854 86.10905075 380.2935791 C86.22598117 394.15357727 84.54692571 405.23153723 74.625 415.625 C64.22926126 425.54909842 53.2888946 427.22539864 39.32958984 427.13293457 C37.80175369 427.1375509 36.27392199 427.14390871 34.74609947 427.15184355 C30.57348429 427.16845964 26.40123756 427.16032594 22.22862148 427.14789867 C17.71865345 427.1388187 13.20874713 427.15283248 8.6987915 427.16381836 C-0.12603884 427.18157678 -8.95073287 427.17777554 -17.77556849 427.1661678 C-24.94961316 427.1571232 -32.12361971 427.15591391 -39.29766846 427.16026306 C-40.31988577 427.16087599 -41.34210309 427.16148893 -42.39529669 427.16212043 C-44.47210679 427.16339937 -46.54891687 427.16469623 -48.62572694 427.1660108 C-68.08623404 427.17740876 -87.5466657 427.16431519 -107.00716043 427.14280933 C-123.69426452 427.12493907 -140.38125729 427.1280434 -157.06835938 427.14648438 C-176.46066049 427.16790493 -195.85289553 427.17631019 -215.24520683 427.16403532 C-217.31424839 427.16276116 -219.38328996 427.16150368 -221.45233154 427.16026306 C-222.47025964 427.15964596 -223.48818774 427.15902886 -224.53696215 427.15839306 C-231.69988954 427.15494372 -238.86277492 427.16075953 -246.0256958 427.17018127 C-254.75850151 427.1814158 -263.49116346 427.17833064 -272.22395277 427.1570583 C-276.67700834 427.14656746 -281.12982447 427.14239242 -285.58287811 427.15565491 C-289.6639813 427.16762552 -293.74462442 427.16093994 -297.82568622 427.1397447 C-299.297275 427.13529832 -300.76890313 427.13750046 -302.24046636 427.14724785 C-315.41940185 427.22780625 -325.66340119 424.89599698 -335.375 415.625 C-345.98340902 404.51242897 -346.98870294 392.50487342 -346.90625 377.84765625 C-346.90894973 376.14659911 -346.91283614 374.44554348 -346.91784668 372.74449158 C-346.92370795 369.20182414 -346.91528117 365.65956317 -346.89648438 362.11694336 C-346.87357374 357.57838826 -346.88691482 353.04077318 -346.91077423 348.50225163 C-346.92521983 344.99949535 -346.9206341 341.49696271 -346.91026306 337.99419975 C-346.90759865 336.32006149 -346.91085549 334.64590281 -346.92018127 332.97178841 C-346.93034045 330.63827579 -346.91486256 328.30629852 -346.89257812 325.97290039 C-346.90067505 325.28455612 -346.90877197 324.59621185 -346.91711426 323.88700867 C-346.85857515 320.57845139 -346.56955387 318.87857483 -344.53161621 316.22239685 C-341.7458742 314.15900908 -339.40156465 313.72760819 -336 313.125 C-327.79170382 311.40805214 -323.26959199 308.28708355 -318.375 301.625 C-316.55494239 297.82998625 -316.02592627 294.49738176 -315.75 290.3125 C-315.67523438 289.24386719 -315.60046875 288.17523438 -315.5234375 287.07421875 C-315.47445312 286.26597656 -315.42546875 285.45773437 -315.375 284.625 C-316.22771484 284.96724609 -316.22771484 284.96724609 -317.09765625 285.31640625 C-322.19459339 287.21393043 -325.99141475 288.31396792 -331.375 286.625 C-334.2244427 283.44694914 -336.40963326 280.06215986 -338.51953125 276.36328125 C-339.10686035 275.33920166 -339.69418945 274.31512207 -340.29931641 273.26000977 C-340.92241699 272.16358154 -341.54551758 271.06715332 -342.1875 269.9375 C-343.18274575 268.19649689 -344.1780011 266.45549918 -345.17382812 264.71482849 C-345.8615485 263.51231053 -346.54871661 262.30947657 -347.23535156 261.1063385 C-349.64014541 256.89566348 -352.07261309 252.70193669 -354.51953125 248.515625 C-355.19373784 247.35904639 -355.86781177 246.20239044 -356.54174805 245.0456543 C-357.81167528 242.86788979 -359.08506779 240.69214087 -360.36254883 238.51879883 C-367.9961299 225.38348081 -373.81889654 213.74672685 -370.69140625 198.234375 C-368.72737204 191.2257882 -366.19405714 186.03307631 -361.375 180.625 C-360.91561035 180.08987793 -360.4562207 179.55475586 -359.98291016 179.00341797 C-354.71270126 173.27879236 -348.31822007 169.8375073 -341.5625 166.125 C-340.31388875 165.42716208 -339.06601697 164.72799957 -337.81884766 164.02758789 C-335.25738489 162.58983786 -332.69332278 161.15689851 -330.12744141 159.72705078 C-324.46730101 156.56526437 -318.85981196 153.31247594 -313.25 150.0625 C-311.10168467 148.82140308 -308.95324711 147.58051772 -306.8046875 146.33984375 C-305.74475586 145.72737793 -304.68482422 145.11491211 -303.59277344 144.48388672 C-298.18829355 141.36175395 -292.78152588 138.24358796 -287.375 135.125 C-285.2083225 133.87501878 -283.04165583 132.62501879 -280.875 131.375 C-267.875 123.875 -267.875 123.875 -264.62451172 121.99975586 C-262.45942929 120.75064482 -260.29439018 119.50145871 -258.12939453 118.25219727 C-252.68884294 115.11297691 -247.24752784 111.97509437 -241.8046875 108.83984375 C-231.35293801 102.81752671 -220.91200452 96.77830663 -210.5 90.6875 C-201.23000223 85.26578822 -191.91668248 79.92295085 -182.58654785 74.60577393 C-173.4621716 69.40454871 -164.37367226 64.14472122 -155.30810547 58.84155273 C-144.78415375 52.68733258 -134.22119863 46.60130004 -123.65722656 40.51611328 C-118.22840062 37.38819854 -112.80177993 34.25646269 -107.375 31.125 C-100.85266725 27.36136081 -94.32986238 23.59855378 -87.8046875 19.83984375 C-86.72050537 19.2149707 -85.63632324 18.59009766 -84.51928711 17.94628906 C-82.35396904 16.69861568 -80.18812283 15.45185839 -78.02172852 14.20605469 C-72.56715059 11.06452284 -67.13156675 7.89538975 -61.72265625 4.67578125 C-60.64580566 4.03777588 -59.56895508 3.39977051 -58.45947266 2.74243164 C-56.42747949 1.53663523 -54.39949144 0.3240518 -52.37646484 -0.89672852 C-35.73044425 -10.75396114 -15.82079582 -13.35443601 0 0 Z M-50.4375 17.9375 C-51.68107078 18.65817362 -52.92505577 19.37813291 -54.16943359 20.09741211 C-57.31660426 21.91929418 -60.45803294 23.7508082 -63.59735107 25.58618164 C-66.27250663 27.14948284 -68.95089294 28.70722576 -71.62890625 30.265625 C-74.5494818 31.96658783 -77.46895844 33.6693226 -80.38549805 35.37719727 C-85.76926912 38.52980719 -91.16525907 41.65942818 -96.578125 44.76171875 C-97.1786972 45.10634659 -97.77926941 45.45097443 -98.39804077 45.80604553 C-101.3220265 47.48387723 -104.24760937 49.15869478 -107.17626953 50.82836914 C-108.21895996 51.42641357 -109.26165039 52.02445801 -110.3359375 52.640625 C-111.72498291 53.43388184 -111.72498291 53.43388184 -113.14208984 54.24316406 C-115.46638887 55.56360315 -115.46638887 55.56360315 -117.375 57.625 C-116.323125 57.934375 -115.27125 58.24375 -114.1875 58.5625 C-109.94535778 60.39413778 -108.20348119 63.14463656 -106.1875 67.203125 C-104.86163125 71.15523379 -105.25116388 73.62133383 -106.375 77.625 C-110.03399977 80.06433318 -113.11939182 80.46922996 -117.375 79.625 C-119.6875 77.4375 -119.6875 77.4375 -121.375 74.625 C-121.931875 73.84125 -122.48875 73.0575 -123.0625 72.25 C-124.66068729 69.05362543 -125.02830374 66.16130182 -125.375 62.625 C-130.23762912 64.0345658 -134.33015046 66.19557973 -138.625 68.8125 C-140.14118915 69.71998405 -141.65816888 70.62614806 -143.17578125 71.53125 C-144.00416504 72.02625 -144.83254883 72.52125 -145.68603516 73.03125 C-150.70167865 76.0040229 -155.75918227 78.90439472 -160.8125 81.8125 C-161.91819336 82.44953857 -163.02388672 83.08657715 -164.16308594 83.74291992 C-166.43524082 85.05200657 -168.70754009 86.36084262 -170.97998047 87.66943359 C-176.4466998 90.81832054 -181.91074887 93.97183264 -187.375 97.125 C-189.54165311 98.3750235 -191.70831979 99.62502347 -193.875 100.875 C-194.9475 101.49375 -196.02 102.1125 -197.125 102.75 C-232.875 123.375 -232.875 123.375 -236.12548828 125.25024414 C-238.29057071 126.49935518 -240.45560982 127.74854129 -242.62060547 128.99780273 C-248.06115706 132.13702309 -253.50247216 135.27490563 -258.9453125 138.41015625 C-270.37711011 144.99717879 -281.79187382 151.61131575 -293.17822266 158.27661133 C-299.83040098 162.16260766 -306.51423346 165.98917466 -313.21313477 169.79370117 C-326.59429605 177.3826934 -326.59429605 177.3826934 -339.8125 185.25 C-340.42609375 185.61512695 -341.0396875 185.98025391 -341.671875 186.35644531 C-348.36155708 190.52019571 -352.49311714 195.98166036 -354.375 203.625 C-355.66054602 215.01126471 -349.08421888 224.10829848 -343.44921875 233.4765625 C-339.322531 240.345608 -335.35571467 247.3078048 -331.36630249 254.25708008 C-330.41171178 255.91926723 -329.45587875 257.58074073 -328.5 259.2421875 C-327.94570313 260.20753418 -327.39140625 261.17288086 -326.8203125 262.16748047 C-325.72969661 264.02189593 -324.56835335 265.83496997 -323.375 267.625 C-321.22937287 267.97551335 -321.22937287 267.97551335 -318.75390625 267.77734375 C-317.82344482 267.74648682 -316.8929834 267.71562988 -315.93432617 267.68383789 C-314.94537354 267.64379639 -313.9564209 267.60375488 -312.9375 267.5625 C-301.17181901 267.34218306 -292.67466835 268.83737493 -283.4453125 276.578125 C-274.7949718 285.13053732 -271.1377708 293.90939356 -270.9375 305.9375 C-271.02372434 316.91792991 -273.60435708 325.45937973 -280.984375 333.78515625 C-282.67648842 335.63950168 -282.67648842 335.63950168 -282.375 338.625 C-281.53919603 340.38029703 -280.62196877 342.09730261 -279.6640625 343.7890625 C-279.08333984 344.82095703 -278.50261719 345.85285156 -277.90429688 346.91601562 C-277.27587891 348.01623047 -276.64746094 349.11644531 -276 350.25 C-275.04577148 351.93512695 -275.04577148 351.93512695 -274.07226562 353.65429688 C-269.25654373 362.13636897 -264.42450084 370.61092181 -259.37988281 378.95947266 C-258.48046268 380.45020253 -257.59476934 381.94919429 -256.7109375 383.44921875 C-252.69643618 389.943265 -248.00875716 394.10542882 -240.9375 397.0625 C-224.09051749 399.72254987 -207.39731922 385.64720336 -193.62207031 377.53076172 C-188.26514474 374.38668946 -182.88278564 371.28702384 -177.5 368.1875 C-176.42073242 367.56552734 -175.34146484 366.94355469 -174.22949219 366.30273438 C-172.03885034 365.0403306 -169.848095 363.77812377 -167.65722656 362.51611328 C-162.22840058 359.38819852 -156.80180719 356.25641552 -151.375 353.125 C-149.20834417 351.87498121 -147.0416775 350.62498122 -144.875 349.375 C-143.8025 348.75625 -142.73 348.1375 -141.625 347.5 C-79.875 311.875 -79.875 311.875 -76.62451172 309.99975586 C-74.45942929 308.75064482 -72.29439018 307.50145871 -70.12939453 306.25219727 C-63.59352797 302.48097572 -57.05600699 298.71264241 -50.51733398 294.94628906 C-47.2898737 293.08548928 -44.06471502 291.22075103 -40.83984375 289.35546875 C-36.95885055 287.11144567 -33.07151967 284.87938193 -29.17468262 282.66297913 C-26.38365507 281.07333277 -23.59881846 279.47288199 -20.8125 277.875 C-19.77657715 277.29032959 -18.7406543 276.70565918 -17.67333984 276.10327148 C-16.25529053 275.28644897 -16.25529053 275.28644897 -14.80859375 274.453125 C-13.97384521 273.9777832 -13.13909668 273.50244141 -12.27905273 273.01269531 C-10.07324696 271.68710684 -10.07324696 271.68710684 -9.375 268.625 C-9.849375 267.903125 -10.32375 267.18125 -10.8125 266.4375 C-12.97755793 262.54039573 -12.66101729 260.05826799 -12.375 255.625 C-12.045 254.635 -11.715 253.645 -11.375 252.625 C-3.30128399 251.04191843 -3.30128399 251.04191843 0.625 253.625 C2.51160269 256.17685102 4.10415854 258.84218372 5.625 261.625 C14.58425512 257.33705223 23.1652811 252.63626043 31.69140625 247.55078125 C36.42594603 244.72968242 41.1985323 241.97712084 45.9765625 239.23046875 C49.31940261 237.3085314 52.65806753 235.37950261 55.99609375 233.44921875 C60.31151808 230.95447264 64.63776877 228.48027509 68.97265625 226.01953125 C70.94040032 224.88853593 72.90786218 223.75704943 74.875 222.625 C76.2221106 221.87029419 76.2221106 221.87029419 77.59643555 221.1003418 C84.94202808 216.84072989 90.50054191 211.92533033 93.15234375 203.65234375 C95.96958679 191.56846657 88.65276779 181.6712934 82.69921875 171.7734375 C78.572531 164.904392 74.60571467 157.9421952 70.61630249 150.99291992 C69.66171178 149.33073277 68.70587875 147.66925927 67.75 146.0078125 C67.19570313 145.04246582 66.64140625 144.07711914 66.0703125 143.08251953 C64.97969661 141.22810407 63.81835335 139.41503003 62.625 137.625 C60.47937287 137.27448665 60.47937287 137.27448665 58.00390625 137.47265625 C57.07344482 137.50351318 56.1429834 137.53437012 55.18432617 137.56616211 C54.19537354 137.60620361 53.2064209 137.64624512 52.1875 137.6875 C40.42181901 137.90781694 31.92466835 136.41262507 22.6953125 128.671875 C14.0449718 120.11946268 10.3877708 111.34060644 10.1875 99.3125 C10.27372434 88.33207009 12.85435708 79.79062027 20.234375 71.46484375 C21.92648842 69.61049832 21.92648842 69.61049832 21.625 66.625 C20.78919603 64.86970297 19.87196877 63.15269739 18.9140625 61.4609375 C18.33333984 60.42904297 17.75261719 59.39714844 17.15429688 58.33398438 C16.52587891 57.23376953 15.89746094 56.13355469 15.25 55 C14.61384766 53.87658203 13.97769531 52.75316406 13.32226562 51.59570312 C8.50654373 43.11363103 3.67450084 34.63907819 -1.37011719 26.29052734 C-2.26953732 24.79979747 -3.15523066 23.30080571 -4.0390625 21.80078125 C-8.08981037 15.24810087 -12.79153959 10.96120558 -20.0625 8.25 C-31.62626546 6.06815746 -40.77257755 12.27314475 -50.4375 17.9375 Z M62.1484375 248.6328125 C61.01535156 249.2825 59.88226563 249.9321875 58.71484375 250.6015625 C57.47649033 251.31758353 56.23821098 252.03373269 55 252.75 C53.72282933 253.48467597 52.44548354 254.21904759 51.16796875 254.953125 C42.32527044 260.04028222 33.51220758 265.17822871 24.70849609 270.33251953 C17.04310726 274.81485533 9.33978394 279.22853602 1.625 283.625 C-7.521052 288.83914275 -16.65082083 294.07930017 -25.75 299.375 C-26.73613281 299.94734375 -27.72226562 300.5196875 -28.73828125 301.109375 C-31.29292732 302.59988379 -33.83502872 304.10967776 -36.375 305.625 C-37.023479 305.99294678 -37.67195801 306.36089355 -38.34008789 306.73999023 C-40.82176251 308.22431191 -42.19843354 309.05584442 -43.07421875 311.87890625 C-43.07035156 312.64074219 -43.06648437 313.40257812 -43.0625 314.1875 C-43.08291422 318.22271007 -43.08291422 318.22271007 -44.6484375 320.37890625 C-47.07715402 322.13175822 -49.42002457 321.98968236 -52.33984375 322.0234375 C-54.93089244 321.51616885 -56.3234492 320.2408871 -58.375 318.625 C-72.77008684 326.6194143 -87.07880211 334.7367491 -101.28515625 343.0625 C-107.59070419 346.7571331 -113.91794436 350.41352681 -120.25 354.0625 C-121.33015381 354.68503662 -122.41030762 355.30757324 -123.52319336 355.94897461 C-125.71296334 357.21076826 -127.90282355 358.47240534 -130.09277344 359.73388672 C-135.52159942 362.86180148 -140.94819281 365.99358448 -146.375 369.125 C-148.54165583 370.37501879 -150.7083225 371.62501878 -152.875 372.875 C-153.9475 373.49375 -155.02 374.1125 -156.125 374.75 C-165.875 380.375 -165.875 380.375 -169.13012695 382.25268555 C-171.28001869 383.49318812 -173.42959959 384.73422956 -175.57885742 385.97583008 C-180.64296479 388.90043382 -185.71000902 391.81953767 -190.7883606 394.71932983 C-193.18037117 396.08563872 -195.57059708 397.45505286 -197.96069336 398.82470703 C-199.64328963 399.78721014 -201.32844836 400.74522931 -203.01367188 401.703125 C-204.03654297 402.28964844 -205.05941406 402.87617188 -206.11328125 403.48046875 C-207.01087158 403.99246826 -207.90846191 404.50446777 -208.83325195 405.03198242 C-211.88886973 406.87942372 -211.88886973 406.87942372 -216.375 410.625 C-164.235 410.625 -112.095 410.625 -58.375 410.625 C-58.045 406.665 -57.715 402.705 -57.375 398.625 C-54.375 395.625 -54.375 395.625 -52.4375 395.2265625 C-51.756875 395.23429688 -51.07625 395.24203125 -50.375 395.25 C-49.694375 395.24226562 -49.01375 395.23453125 -48.3125 395.2265625 C-45.71647998 395.76042146 -44.98405881 396.51808337 -43.375 398.625 C-42.86328125 401.54296875 -42.86328125 401.54296875 -42.6875 404.8125 C-42.58888672 406.44251953 -42.58888672 406.44251953 -42.48828125 408.10546875 C-42.43220703 409.35263672 -42.43220703 409.35263672 -42.375 410.625 C-31.05667902 410.67143684 -19.73838088 410.70692679 -8.41998386 410.72862434 C-3.16382534 410.73904054 2.09226778 410.75316013 7.34838867 410.77587891 C12.42529502 410.79768455 17.50213863 410.80958489 22.57908821 410.81475449 C24.51146494 410.8184364 26.44383841 410.82562615 28.37618828 410.83646011 C31.09258189 410.85107772 33.80871958 410.85297367 36.52514648 410.85205078 C37.71090775 410.86283661 37.71090775 410.86283661 38.92062378 410.87384033 C47.86899239 410.84116043 55.71754376 409.56776168 62.25390625 402.984375 C68.28719608 396.29687302 69.75875716 389.74566435 69.73852539 380.80322266 C69.73841209 379.12215927 69.73841209 379.12215927 69.73829651 377.40713501 C69.73313522 376.21317108 69.72797394 375.01920715 69.72265625 373.7890625 C69.7212413 372.55457367 69.71982635 371.32008484 69.71836853 370.04818726 C69.71278272 366.11543325 69.70023275 362.18273672 69.6875 358.25 C69.68191912 355.57942792 69.67792058 352.90885637 69.67382812 350.23828125 C69.66281792 343.70050131 69.64609385 337.16275476 69.625 330.625 C68.40937378 330.13906372 68.40937378 330.13906372 67.16918945 329.64331055 C66.09886475 329.20801025 65.02854004 328.77270996 63.92578125 328.32421875 C62.86786377 327.89713623 61.80994629 327.47005371 60.7199707 327.0300293 C51.39786663 322.7980573 44.852731 315.57886165 40.5625 306.3359375 C36.77204591 296.02152877 36.79779155 285.23756127 40.62890625 274.921875 C46.02280504 263.3152017 54.35214397 256.27750274 66.25 251.75 C67.36375 251.37875 68.4775 251.0075 69.625 250.625 C69.625 248.975 69.625 247.325 69.625 245.625 C66.60950002 245.625 64.75091698 247.13494375 62.1484375 248.6328125 Z M-298.375 287.625 C-298.46136719 288.66398437 -298.54773438 289.70296875 -298.63671875 290.7734375 C-299.81755425 303.14324634 -302.82640461 313.02016113 -312.375 321.625 C-316.84346649 324.84492439 -321.38695128 327.29895787 -326.54516602 329.20776367 C-327.2630983 329.47425217 -327.98103058 329.74074066 -328.72071838 330.01530457 C-329.26663132 330.21650406 -329.81254425 330.41770355 -330.375 330.625 C-330.42589285 338.43543705 -330.46081449 346.245831 -330.48486328 354.05639648 C-330.49375946 356.71109839 -330.50852056 359.36558227 -330.52587891 362.02026367 C-330.5502576 365.84556799 -330.56151312 369.67072566 -330.5703125 373.49609375 C-330.58063507 374.67457382 -330.59095764 375.85305389 -330.60159302 377.06724548 C-330.60281874 386.15889381 -330.35494865 394.35208949 -324.375 401.625 C-317.33908535 408.61065812 -310.65712072 410.76181249 -300.73681641 410.73852539 C-299.65614899 410.73844986 -298.57548157 410.73837433 -297.46206665 410.73829651 C-296.31185028 410.73313522 -295.16163391 410.72797394 -293.9765625 410.72265625 C-292.19141739 410.72053383 -292.19141739 410.72053383 -290.37020874 410.71836853 C-286.58011328 410.7127842 -282.79007752 410.70023451 -279 410.6875 C-276.4257821 410.68248298 -273.85156328 410.67792042 -271.27734375 410.67382812 C-264.97654223 410.66281989 -258.67577538 410.64609731 -252.375 410.625 C-255.8838016 407.81615156 -255.8838016 407.81615156 -259.40234375 405.01953125 C-260.03269531 404.49746094 -260.66304688 403.97539062 -261.3125 403.4375 C-261.94027344 402.92832031 -262.56804687 402.41914063 -263.21484375 401.89453125 C-269.54914637 395.23950444 -273.79182693 386.61340222 -278.3125 378.6875 C-279.62586518 376.39167545 -280.93964103 374.09609024 -282.25390625 371.80078125 C-282.5888208 371.21505341 -282.92373535 370.62932556 -283.26879883 370.02584839 C-285.69854629 365.78355969 -288.16817382 361.56606683 -290.65234375 357.35546875 C-291.34609204 356.17392726 -292.03953703 354.99220763 -292.73266602 353.81030273 C-294.05287055 351.56213645 -295.37992506 349.31797525 -296.71459961 347.07836914 C-297.31151611 346.05735107 -297.90843262 345.03633301 -298.5234375 343.984375 C-299.05114746 343.09202148 -299.57885742 342.19966797 -300.12255859 341.28027344 C-301.50742576 338.34424706 -302.07366914 335.85074968 -302.375 332.625 C-300.91624251 328.83223053 -298.49430223 326.83322124 -295.4375 324.3125 C-290.48147996 320.05926733 -287.84918346 316.28510355 -287 309.73046875 C-286.65858487 301.24843669 -288.45928731 295.95724307 -294 289.625 C-296.11248113 287.41028808 -296.11248113 287.41028808 -298.375 287.625 Z " fill="#000000" transform="translate(386.375,45.375)"/>
<path d="M0 0 C2.56114641 1.64884606 5.07574174 3.35101589 7.58151245 5.08282471 C8.50044785 5.70662018 9.41938324 6.33041565 10.36616516 6.97311401 C13.27614056 8.95133668 16.17698061 10.94248739 19.0776062 12.93438721 C21.02687353 14.26339628 22.9767386 15.59152907 24.92721558 16.91876221 C28.52350908 19.36692771 32.11583365 21.82071583 35.70480347 24.27960205 C36.50322662 24.82251892 37.30164978 25.36543579 38.12426758 25.92480469 C39.75987944 27.04304936 41.38688885 28.17395281 43.00628662 29.31555176 C43.79931183 29.86604187 44.59233704 30.41653198 45.40939331 30.98370361 C46.46482582 31.72712509 46.46482582 31.72712509 47.5415802 32.48556519 C49.67134154 33.84814503 49.67134154 33.84814503 53.1401062 33.55938721 C55.30904654 32.91673822 57.46767497 32.23755719 59.61080933 31.51348877 C64.17217027 30.22031325 68.64687216 30.27214563 73.3588562 30.29376221 C74.75074158 30.29089203 74.75074158 30.29089203 76.17074585 30.28796387 C78.12391431 30.2866087 80.07709199 30.29025824 82.03024292 30.29864502 C85.00587352 30.30935398 87.98090045 30.2987269 90.95651245 30.28594971 C92.86146169 30.28727142 94.76641055 30.28983406 96.6713562 30.29376221 C97.55384033 30.28971375 98.43632446 30.28566528 99.34555054 30.28149414 C111.09100913 30.36988017 111.09100913 30.36988017 115.4526062 34.30938721 C116.90047933 37.37547148 116.85095031 39.15798932 116.5151062 42.55938721 C115.33152224 45.59640846 113.78401259 48.40064911 112.2026062 51.24688721 C111.53189087 52.48015747 111.53189087 52.48015747 110.84762573 53.73834229 C109.41699107 56.35306176 107.966051 58.95589491 106.5151062 61.55938721 C105.81006958 62.85102783 105.81006958 62.85102783 105.09078979 64.16876221 C94.20999527 84.09612783 94.20999527 84.09612783 84.5151062 90.55938721 C84.1587048 92.47314773 84.1587048 92.47314773 84.37057495 94.69610596 C84.41512817 95.56775391 84.4596814 96.43940186 84.50558472 97.33746338 C84.57060181 98.29757324 84.6356189 99.25768311 84.7026062 100.24688721 C84.75795532 101.25275879 84.81330444 102.25863037 84.87033081 103.29498291 C85.28667112 110.61715391 85.81090339 117.93283218 86.30880737 125.24981689 C87.73375431 146.35025316 87.73375431 146.35025316 87.8901062 155.99688721 C87.91596802 156.76412109 87.94182983 157.53135498 87.96847534 158.32183838 C87.99136919 164.88941784 85.78275548 169.78412607 81.6479187 174.84454346 C75.29914476 180.46456708 66.12962538 187.56629313 57.33932495 187.55548096 C53.70103704 186.27226738 52.70868782 184.70563084 50.5151062 181.55938721 C49.23684692 178.60435486 49.23684692 178.60435486 48.13327026 175.300354 C47.7131366 174.05944504 47.29300293 172.81853607 46.86013794 171.5400238 C46.41677848 170.1962917 45.97364819 168.85248397 45.5307312 167.50860596 C45.0665295 166.12539226 44.60140725 164.74248718 44.13540649 163.35987854 C42.91628938 159.734684 41.70966224 156.10545284 40.50564575 152.47521973 C39.27286986 148.76571547 38.02824849 145.06019181 36.78463745 141.35430908 C34.34989243 134.09316529 31.92833711 126.82771328 29.5151062 119.55938721 C26.30745593 119.55938721 25.14233376 120.07982409 22.35494995 121.52813721 C21.164823 122.13721924 21.164823 122.13721924 19.95065308 122.75860596 C18.71411987 123.40249268 18.71411987 123.40249268 17.4526062 124.05938721 C15.81773897 124.90671917 14.18110064 125.7506454 12.54244995 126.59063721 C11.81791626 126.96768799 11.09338257 127.34473877 10.34689331 127.73321533 C8.5151062 128.55938721 8.5151062 128.55938721 6.5151062 128.55938721 C6.8451062 129.21938721 7.1751062 129.87938721 7.5151062 130.55938721 C8.91567387 140.87728401 10.59109953 153.5245117 4.5151062 162.55938721 C-0.38811631 168.08479894 -6.05854968 172.92705233 -13.5473938 173.99688721 C-17.4776746 173.41152624 -18.61059706 172.3632761 -21.4848938 169.55938721 C-23.79215556 166.08649872 -25.79472551 162.46431768 -27.7973938 158.80938721 C-28.34717896 157.82583252 -28.89696411 156.84227783 -29.46340942 155.82891846 C-30.81334026 153.41078148 -32.15338993 150.98770427 -33.4848938 148.55938721 C-35.0996603 148.7124145 -36.71420212 148.86781397 -38.3286438 149.02423096 C-39.22776489 149.11051758 -40.12688599 149.1968042 -41.05325317 149.28570557 C-43.51141237 149.51762977 -43.51141237 149.51762977 -45.9848938 150.12188721 C-50.20490628 150.86038939 -54.23340457 151.2573929 -58.4848938 150.55938721 C-60.98327915 148.46771575 -61.89702029 147.28001125 -63.4848938 144.55938721 C-64.09590942 143.63899658 -64.70692505 142.71860596 -65.3364563 141.77032471 C-71.8180066 131.57027543 -71.8180066 131.57027543 -71.3833313 126.63360596 C-69.55636243 122.41569086 -66.15992319 119.30184114 -62.96536255 116.07501221 C-59.92574072 113.04348731 -59.92574072 113.04348731 -57.4848938 109.55938721 C-57.96855842 106.3108163 -59.32360524 103.87477742 -60.98880005 101.07501221 C-61.48186646 100.22165283 -61.97493286 99.36829346 -62.48294067 98.48907471 C-63.52011461 96.71254208 -64.56691274 94.94159101 -65.62356567 93.17657471 C-68.76741202 87.68823482 -70.48683948 83.91200116 -69.4848938 77.55938721 C-67.37059721 74.76412236 -64.51122079 73.28487737 -61.4848938 71.55938721 C-60.4123938 70.94063721 -59.3398938 70.32188721 -58.2348938 69.68438721 C-50.66876989 67.41455003 -43.04369697 67.46186254 -35.9302063 71.07110596 C-30.6063929 74.31131827 -25.53247358 77.9082785 -20.4848938 81.55938721 C-14.50187438 78.42336012 -8.9980666 74.91256099 -3.55130005 70.91485596 C-1.4848938 69.55938721 -1.4848938 69.55938721 0.5151062 69.55938721 C-4.79848493 62.92381568 -10.26976537 56.55108583 -16.02786255 50.29766846 C-18.37865512 47.67778675 -20.59739839 44.99386502 -22.7973938 42.24688721 C-26.91969596 37.12523906 -31.33268512 32.33558878 -35.88064575 27.59332275 C-45.0605559 17.91681995 -45.0605559 17.91681995 -46.0473938 12.43438721 C-45.09010764 7.5415913 -42.33117756 5.13147915 -38.27786255 2.39141846 C-37.08208759 1.70755594 -35.88007489 1.03449726 -34.6723938 0.37188721 C-33.78584106 -0.14148193 -33.78584106 -0.14148193 -32.88137817 -0.66522217 C-21.1745675 -7.23993046 -11.38420478 -6.59997263 0 0 Z M-23.4848938 14.55938721 C-22.6805188 15.48751221 -21.8761438 16.41563721 -21.0473938 17.37188721 C-18.4207136 20.42716324 -15.88407827 23.54409942 -13.3598938 26.68438721 C-8.88406564 32.18088564 -4.12118062 37.35947215 0.7104187 42.53985596 C5.5246851 47.70398699 10.16745649 52.99439558 14.5151062 58.55938721 C19.26439316 56.93947538 23.13829312 54.34240181 27.2651062 51.55938721 C27.94959839 51.10821533 28.63409058 50.65704346 29.33932495 50.19219971 C32.99638442 47.92085243 32.99638442 47.92085243 35.5151062 44.55938721 C34.97719452 44.20495544 34.43928284 43.85052368 33.8850708 43.48535156 C28.27187566 39.78675355 22.65882921 36.08792995 17.04586792 32.38897705 C14.95280689 31.00968772 12.85970832 29.63045535 10.76657104 28.25128174 C7.75296243 26.26559283 4.73949016 24.27969718 1.7260437 22.29376221 C0.79456512 21.68006775 -0.13691345 21.06637329 -1.09661865 20.43408203 C-1.97707855 19.85378235 -2.85753845 19.27348267 -3.76467896 18.67559814 C-4.58687927 18.13672974 -5.40907959 17.59786133 -6.25619507 17.04266357 C-7.62192314 16.13372414 -8.97660013 15.20754146 -10.3107605 14.25286865 C-15.44649429 10.58961798 -18.38183798 11.15734999 -23.4848938 14.55938721 Z M55.5151062 52.55938721 C54.91102936 52.95062775 54.30695251 53.34186829 53.68457031 53.7449646 C49.09771407 56.72793432 44.56495949 59.78757441 40.03677368 62.85858154 C35.74184488 65.75541045 31.41086648 68.59718926 27.08151245 71.44219971 C25.27189557 72.63329107 23.46232585 73.82445409 21.65280151 75.01568604 C20.74066895 75.61587555 19.82853638 76.21606506 18.88876343 76.83444214 C1.39061446 88.34949156 -16.07972952 99.90422852 -33.4848938 111.55938721 C-32.26333221 115.35122336 -31.04667123 118.59667429 -28.8598938 121.93438721 C-28.41387817 122.62274658 -27.96786255 123.31110596 -27.5083313 124.02032471 C-27.00172974 124.78216064 -27.00172974 124.78216064 -26.4848938 125.55938721 C-23.1195496 124.98671003 -20.3319495 124.17142306 -17.27946472 122.6505127 C-16.47350357 122.25248444 -15.66754242 121.85445618 -14.8371582 121.44436646 C-13.96688995 121.00698151 -13.0966217 120.56959656 -12.19998169 120.11895752 C-10.80882896 119.42852859 -10.80882896 119.42852859 -9.38957214 118.72415161 C-6.32579705 117.20141146 -3.26653659 115.66984664 -0.20755005 114.13751221 C1.92312725 113.07445409 4.05395316 112.0116938 6.18492126 110.94921875 C10.6514197 108.72043797 15.11561514 106.48712272 19.57833862 104.25079346 C25.2910533 101.38869648 31.01000157 98.53931421 36.73084164 95.69350052 C41.1337713 93.50122013 45.53294329 91.30148362 49.9310627 89.09957123 C52.03770767 88.04617215 54.14559325 86.99525029 56.25474358 85.94687653 C59.20733527 84.47803881 62.15462298 82.99904894 65.10079956 81.51739502 C65.96904358 81.08810699 66.8372876 80.65881897 67.73184204 80.21652222 C73.91412572 77.08779454 79.63007377 73.78454098 83.18307495 67.59844971 C83.60137573 66.87915283 84.01967651 66.15985596 84.45065308 65.41876221 C84.86379761 64.68141846 85.27694214 63.94407471 85.7026062 63.18438721 C86.33972534 62.08997314 86.33972534 62.08997314 86.98971558 60.97344971 C89.49572228 56.60839914 91.62590163 52.22393791 93.5151062 47.55938721 C89.05712577 47.41271342 84.59977566 47.32485346 80.1401062 47.24688721 C78.88842651 47.20499268 77.63674683 47.16309814 76.34713745 47.11993408 C67.95016002 47.010026 62.52912029 47.97938821 55.5151062 52.55938721 Z M-49.4848938 85.55938721 C-47.5048938 89.18938721 -45.5248938 92.81938721 -43.4848938 96.55938721 C-39.78000952 95.63316614 -38.31885311 94.88728235 -35.4848938 92.55938721 C-37.05972505 91.38126917 -38.64511753 90.21725894 -40.2348938 89.05938721 C-41.11661255 88.40969971 -41.9983313 87.76001221 -42.9067688 87.09063721 C-45.55832005 85.21894778 -45.55832005 85.21894778 -49.4848938 85.55938721 Z M65.5151062 99.55938721 C63.24716443 100.3665858 63.24716443 100.3665858 60.7260437 101.64923096 C59.31452026 102.33082275 59.31452026 102.33082275 57.8744812 103.02618408 C56.88963745 103.51151611 55.9047937 103.99684814 54.8901062 104.49688721 C53.89752808 104.97835205 52.90494995 105.45981689 51.8822937 105.95587158 C49.42304022 107.15002832 46.96761285 108.35145031 44.5151062 109.55938721 C53.80475042 137.63116971 53.80475042 137.63116971 63.5151062 165.55938721 C67.16827291 164.30961965 68.29576456 163.88839967 70.5151062 160.55938721 C71.61359877 149.20572906 70.08191704 137.2559261 69.3432312 125.90484619 C69.13766057 122.70886523 68.94731217 119.51218555 68.7572937 116.31524658 C68.62800762 114.28589074 68.49783305 112.25659126 68.3666687 110.22735596 C68.31136993 109.27024216 68.25607117 108.31312836 68.19909668 107.32701111 C68.13918549 106.45131973 68.07927429 105.57562836 68.01754761 104.67340088 C67.96869415 103.9006633 67.9198407 103.12792572 67.86950684 102.33177185 C67.75255463 101.74688492 67.63560242 101.16199799 67.5151062 100.55938721 C66.8551062 100.22938721 66.1951062 99.89938721 65.5151062 99.55938721 Z M-47.4848938 124.55938721 C-49.63057292 126.28794647 -49.63057292 126.28794647 -51.4848938 128.55938721 C-51.34848003 130.77796974 -51.34848003 130.77796974 -50.4848938 132.55938721 C-47.0198938 132.06438721 -47.0198938 132.06438721 -43.4848938 131.55938721 C-44.08673129 129.53893278 -44.75795476 127.53827681 -45.4848938 125.55938721 C-46.1448938 125.22938721 -46.8048938 124.89938721 -47.4848938 124.55938721 Z M-17.4848938 140.55938721 C-16.72414537 142.18913285 -15.95090947 143.81305369 -15.1723938 145.43438721 C-14.74313599 146.33930908 -14.31387817 147.24423096 -13.87161255 148.17657471 C-12.564955 150.82388197 -12.564955 150.82388197 -9.4848938 152.55938721 C-8.63601185 147.18313487 -8.48246329 142.90568323 -9.4848938 137.55938721 C-12.56499259 137.55938721 -14.79624516 139.156614 -17.4848938 140.55938721 Z " fill="#000000" transform="translate(189.48489379882813,184.44061279296875)"/>
<path d="M0 0 C7.46831531 3.56442322 11.65598853 13.97512968 15.5625 20.875 C16.14708984 21.87724609 16.73167969 22.87949219 17.33398438 23.91210938 C22.88489327 33.68248088 22.88489327 33.68248088 22.75 39.3125 C20.75258711 43.52683077 18.65539882 45.322901 14.5859375 47.51171875 C13.55460693 48.07608643 12.52327637 48.6404541 11.46069336 49.22192383 C10.35991455 49.80868896 9.25913574 50.3954541 8.125 51 C5.84164512 52.24592571 3.5590946 53.49332664 1.27734375 54.7421875 C0.15956543 55.35030273 -0.95821289 55.95841797 -2.10986328 56.58496094 C-6.22743966 58.8502362 -10.27658873 61.21813104 -14.3125 63.625 C-15.64295849 64.41061483 -16.9736835 65.19577849 -18.3046875 65.98046875 C-20.34556616 67.18504751 -22.38434991 68.39274095 -24.41894531 69.60791016 C-26.58462476 70.89709605 -28.75980316 72.16874615 -30.9375 73.4375 C-31.90925171 74.02398315 -31.90925171 74.02398315 -32.90063477 74.62231445 C-36.8403401 76.89373056 -39.71254187 78.09460633 -44.25 77.3125 C-50.15057303 73.32620333 -53.0317556 67.52480438 -56.46313477 61.48730469 C-57.55794635 59.57047268 -58.68096283 57.6722659 -59.80664062 55.7734375 C-60.51480673 54.54269254 -61.22124538 53.31095167 -61.92578125 52.078125 C-62.56427002 50.97243164 -63.20275879 49.86673828 -63.8605957 48.72753906 C-65.59017601 44.47637594 -65.64416358 41.86797274 -65.25 37.3125 C-61.54202732 32.05888818 -55.47705253 29.39108694 -49.9375 26.375 C-47.8740612 25.23216216 -45.81159287 24.08757066 -43.75 22.94140625 C-42.68394531 22.3498877 -41.61789062 21.75836914 -40.51953125 21.14892578 C-34.12140193 17.55523337 -27.81032073 13.81043075 -21.49682617 10.07055664 C-5.23531983 0.50339614 -5.23531983 0.50339614 0 0 Z M-10.94921875 23.83984375 C-11.90489746 24.38084717 -12.86057617 24.92185059 -13.84521484 25.47924805 C-14.86566895 26.06359619 -15.88612305 26.64794434 -16.9375 27.25 C-17.97084473 27.83885986 -19.00418945 28.42771973 -20.06884766 29.03442383 C-26.10859723 32.48658192 -32.13862994 35.95594276 -38.125 39.5 C-38.74205811 39.86150146 -39.35911621 40.22300293 -39.99487305 40.59545898 C-43.17119486 42.40726899 -43.17119486 42.40726899 -45.25 45.3125 C-43.79793372 48.25614483 -43.79793372 48.25614483 -41.8125 51.4375 C-41.15378906 52.53320312 -40.49507813 53.62890625 -39.81640625 54.7578125 C-39.29949219 55.60085937 -38.78257812 56.44390625 -38.25 57.3125 C-37.52941406 56.89742187 -36.80882812 56.48234375 -36.06640625 56.0546875 C-34.99261719 55.43851563 -33.91882813 54.82234375 -32.8125 54.1875 C-32.21864502 53.84493164 -31.62479004 53.50236328 -31.01293945 53.14941406 C-26.63761757 50.63879863 -22.22514414 48.20643702 -17.7890625 45.8046875 C-16.66169678 45.18867676 -15.53433105 44.57266602 -14.37280273 43.93798828 C-12.09420964 42.69400049 -9.80987598 41.46046686 -7.51977539 40.23779297 C-5.93797485 39.36985107 -5.93797485 39.36985107 -4.32421875 38.484375 C-3.37119873 37.9697168 -2.41817871 37.45505859 -1.4362793 36.92480469 C0.86708681 35.50762877 0.86708681 35.50762877 1.63867188 33.27539062 C1.80878924 30.27595295 0.50540537 28.57408612 -1.0625 26.0625 C-1.60519531 25.17046875 -2.14789063 24.2784375 -2.70703125 23.359375 C-3.21621094 22.68390625 -3.72539062 22.0084375 -4.25 21.3125 C-7.02726166 21.3125 -8.53552229 22.46826556 -10.94921875 23.83984375 Z " fill="#000000" transform="translate(362.25,67.6875)"/>
<path d="M0 0 C3.44652326 2.44128731 4.78056289 3.82966874 5.5625 8 C4.68942351 12.65640795 2.21410726 15.16678694 -1.64355469 17.81420898 C-2.64290039 18.36923096 -3.64224609 18.92425293 -4.671875 19.49609375 C-5.80028809 20.13071533 -6.92870117 20.76533691 -8.09130859 21.41918945 C-9.31082332 22.09204859 -10.53038824 22.76481675 -11.75 23.4375 C-13.63938235 24.49451547 -15.5267081 25.55514385 -17.41403198 26.61582947 C-18.69973891 27.33797673 -19.98614212 28.05888567 -21.27322388 28.77857971 C-28.69830049 32.93426619 -36.02725017 37.25117013 -43.35839844 41.57006836 C-56.0753921 49.03134264 -56.0753921 49.03134264 -60.6875 48.875 C-65.36108949 47.64046693 -65.36108949 47.64046693 -67 45 C-68.05950687 41.59444219 -68.18122045 39.59827574 -67.14453125 36.17578125 C-63.97333057 31.47963161 -59.75394573 29.60241062 -54.8125 27 C-52.73077704 25.86510224 -50.65008104 24.72831913 -48.5703125 23.58984375 C-47.49168945 23.00444824 -46.41306641 22.41905273 -45.30175781 21.81591797 C-39.87278775 18.83006472 -34.53131263 15.69746954 -29.1875 12.5625 C-28.21723877 11.99595703 -27.24697754 11.42941406 -26.24731445 10.84570312 C-25.31363037 10.29978516 -24.37994629 9.75386719 -23.41796875 9.19140625 C-22.51699463 8.66474365 -21.61602051 8.13808105 -20.68774414 7.59545898 C-18.85807896 6.50936016 -17.03983251 5.40384414 -15.23217773 4.28149414 C-14.35376221 3.7374292 -13.47534668 3.19336426 -12.5703125 2.6328125 C-11.79316895 2.14312988 -11.01602539 1.65344727 -10.21533203 1.14892578 C-6.45352546 -0.8020398 -4.16936031 -0.77733836 0 0 Z " fill="#000000" transform="translate(460,235)"/>
<path d="M0 0 C2.9375 2.125 2.9375 2.125 5 5 C5.57130919 8.99916431 5.15760368 11.6154029 3 15 C0.79882813 16.59301758 0.79882813 16.59301758 -1.96875 18.14453125 C-3.00281982 18.73194092 -4.03688965 19.31935059 -5.10229492 19.92456055 C-6.2235376 20.54758057 -7.34478027 21.17060059 -8.5 21.8125 C-9.66250388 22.46867779 -10.82436046 23.12600355 -11.9855957 23.78442383 C-14.41453102 25.16050697 -16.84622832 26.53152211 -19.27978516 27.89941406 C-25.27820785 31.27793772 -31.22952651 34.73834921 -37.1875 38.1875 C-40.26237915 39.96304066 -43.33782889 41.73752379 -46.41601562 43.50732422 C-48.0083991 44.42718746 -49.59661815 45.35435907 -51.17773438 46.29345703 C-55.04413306 48.57584683 -57.45685759 49.79011172 -62 49 C-65.41639845 47.0260809 -66.72268412 45.81461541 -68 42.0625 C-68 38.1732287 -67.52982702 36.97626708 -65 34 C-59.18501903 29.22392382 -52.23003759 25.85487638 -45.65673828 22.2487793 C-36.77514466 17.36507786 -28.0442534 12.22707125 -19.30078125 7.1015625 C-18.38425781 6.56619873 -17.46773438 6.03083496 -16.5234375 5.47924805 C-14.9667213 4.56669547 -13.41377442 3.64763387 -11.8671875 2.71801758 C-7.64012285 0.20847722 -4.96297821 -0.82716304 0 0 Z " fill="#000000" transform="translate(444,207)"/>
<path d="M0 0 C1.26811523 -0.01260864 2.53623047 -0.02521729 3.84277344 -0.03820801 C5.22331295 -0.03104817 6.60384739 -0.02284418 7.984375 -0.01367188 C9.40397406 -0.0163675 10.82357131 -0.02025051 12.24316406 -0.02526855 C15.21567394 -0.03116045 18.18770241 -0.02261142 21.16015625 -0.00390625 C24.96696287 0.01888413 28.77264149 0.00575925 32.57940674 -0.01819611 C35.51001456 -0.03266301 38.44035574 -0.02804423 41.37097168 -0.01768494 C42.77437474 -0.01502007 44.17780215 -0.01827905 45.58117676 -0.02760315 C47.54369635 -0.03778128 49.50630102 -0.01951228 51.46875 0 C52.58475586 0.00318237 53.70076172 0.00636475 54.85058594 0.00964355 C58.37643133 0.63066636 59.55273304 1.73650375 61.734375 4.51757812 C62.265625 6.51757812 62.265625 6.51757812 62.234375 8.51757812 C62.24984375 9.50757813 62.24984375 9.50757813 62.265625 10.51757812 C61.48338263 13.46249057 60.08885796 14.61339613 57.734375 16.51757812 C54.85058594 17.0255127 54.85058594 17.0255127 51.46875 17.03515625 C50.20063477 17.04776489 48.93251953 17.06037354 47.62597656 17.07336426 C46.24543705 17.06620442 44.86490261 17.05800043 43.484375 17.04882812 C42.06477594 17.05152375 40.64517869 17.05540676 39.22558594 17.0604248 C36.25307606 17.0663167 33.28104759 17.05776767 30.30859375 17.0390625 C26.50178713 17.01627212 22.69610851 17.029397 18.88934326 17.05335236 C15.95873544 17.06781926 13.02839426 17.06320048 10.09777832 17.05284119 C8.69437526 17.05017632 7.29094785 17.0534353 5.88757324 17.0627594 C3.92505365 17.07293753 1.96244898 17.05466853 0 17.03515625 C-1.11600586 17.03197388 -2.23201172 17.0287915 -3.38183594 17.0255127 C-6.90768133 16.40448989 -8.08398304 15.2986525 -10.265625 12.51757812 C-10.796875 10.51757812 -10.796875 10.51757812 -10.765625 8.51757812 C-10.78109375 7.52757812 -10.78109375 7.52757812 -10.796875 6.51757812 C-9.30398497 0.89728626 -5.23640274 0.01493199 0 0 Z " fill="#000000" transform="translate(378.265625,423.482421875)"/>
<path d="M0 0 C1.26811523 -0.01260864 2.53623047 -0.02521729 3.84277344 -0.03820801 C5.22331295 -0.03104817 6.60384739 -0.02284418 7.984375 -0.01367188 C9.40397406 -0.0163675 10.82357131 -0.02025051 12.24316406 -0.02526855 C15.21567394 -0.03116045 18.18770241 -0.02261142 21.16015625 -0.00390625 C24.96696287 0.01888413 28.77264149 0.00575925 32.57940674 -0.01819611 C35.51001456 -0.03266301 38.44035574 -0.02804423 41.37097168 -0.01768494 C42.77437474 -0.01502007 44.17780215 -0.01827905 45.58117676 -0.02760315 C47.54369635 -0.03778128 49.50630102 -0.01951228 51.46875 0 C52.58475586 0.00318237 53.70076172 0.00636475 54.85058594 0.00964355 C58.37643133 0.63066636 59.55273304 1.73650375 61.734375 4.51757812 C62.265625 6.51757812 62.265625 6.51757812 62.234375 8.51757812 C62.24984375 9.50757813 62.24984375 9.50757813 62.265625 10.51757812 C61.48338263 13.46249057 60.08885796 14.61339613 57.734375 16.51757812 C54.85058594 17.0255127 54.85058594 17.0255127 51.46875 17.03515625 C50.20063477 17.04776489 48.93251953 17.06037354 47.62597656 17.07336426 C46.24543705 17.06620442 44.86490261 17.05800043 43.484375 17.04882812 C42.06477594 17.05152375 40.64517869 17.05540676 39.22558594 17.0604248 C36.25307606 17.0663167 33.28104759 17.05776767 30.30859375 17.0390625 C26.50178713 17.01627212 22.69610851 17.029397 18.88934326 17.05335236 C15.95873544 17.06781926 13.02839426 17.06320048 10.09777832 17.05284119 C8.69437526 17.05017632 7.29094785 17.0534353 5.88757324 17.0627594 C3.92505365 17.07293753 1.96244898 17.05466853 0 17.03515625 C-1.11600586 17.03197388 -2.23201172 17.0287915 -3.38183594 17.0255127 C-6.90768133 16.40448989 -8.08398304 15.2986525 -10.265625 12.51757812 C-10.796875 10.51757812 -10.796875 10.51757812 -10.765625 8.51757812 C-10.78109375 7.52757812 -10.78109375 7.52757812 -10.796875 6.51757812 C-9.30398497 0.89728626 -5.23640274 0.01493199 0 0 Z " fill="#000000" transform="translate(378.265625,391.482421875)"/>
<path d="M0 0 C4.49818086 0.80324658 5.72521464 2.02527845 8.5 5.625 C11.1634576 9.66669122 12.51800342 12.52679127 12.4375 17.4375 C11.07142857 22.08214286 11.07142857 22.08214286 8.5 23.625 C4.86636839 24.56705264 2.46182818 24.94560939 -1.125 23.75 C-5.66044544 19.69196987 -8.12917972 14.84992169 -9.125 8.875 C-8.05846933 3.32904051 -5.52467252 0.98654866 0 0 Z " fill="#000000" transform="translate(365.5,268.375)"/>
<path d="M0 0 C3.42187858 3.40632459 6.11882215 7.55438631 8 12 C7.92484951 16.20842764 7.65198603 18.27350128 4.8125 21.4375 C1.43724821 23.31263988 -0.2007634 23.71235686 -4 23 C-8.24461371 19.66494637 -10.75166291 15.82976115 -13 11 C-13.45306396 7.18131809 -13.55412288 5.00269854 -11.6875 1.625 C-8.08858996 -1.84061708 -4.52309742 -1.30326536 0 0 Z " fill="#000000" transform="translate(354,242)"/>
<path d="M0 0 C4.99251121 1.77599213 6.53262369 5.67525255 8.8515625 10.171875 C10.38909657 13.95818338 10.48013094 16.1828202 9 20 C6.875 22.5 6.875 22.5 4 24 C0.15769214 24 -2.08447999 23.68010058 -5.1875 21.375 C-8.43135914 17.12442596 -10.72986536 13.74086765 -11.5625 8.375 C-10.45969398 1.75816389 -6.53522031 -0.97333068 0 0 Z " fill="#000000" transform="translate(304,158)"/>
<path d="M0 0 C3.42148163 3.39820624 6.12848262 7.55625493 8 12 C7.86339823 15.82484946 7.50903182 18.23645227 5.375 21.4375 C1.99762021 23.65946039 -0.03523594 23.62601538 -4 23 C-9.18279774 19.02250406 -12.61831824 13.81490295 -13.5 7.3125 C-12.9182269 3.45825324 -12.05092742 2.33306214 -9 0 C-5.64737261 -1.6763137 -3.554469 -1.00709955 0 0 Z " fill="#000000" transform="translate(290,131)"/>
<path d="M0 0 C3.64468642 3.53748976 6.31391758 8.20549748 8 13 C8 16.69296659 7.44768875 18.34568567 5.375 21.375 C2.03215555 23.66220936 -0.02771738 23.55751335 -4 23 C-8.86510893 20.28459036 -11.20502353 16.13536049 -13 11 C-13.55437546 6.84218402 -13.75145435 4.98466432 -11.1875 1.625 C-7.28917066 -1.2709018 -4.57359406 -1.30674116 0 0 Z " fill="#000000" transform="translate(338,214)"/>
<path d="M0 0 C4.12954468 1.00559771 5.95855004 3.95658155 8.18359375 7.34375 C10.24010552 10.93914813 10.96374032 13.0673095 10.89453125 17.2890625 C9.94647981 20.51243741 9.52156442 21.47868016 6.95703125 23.4765625 C3.87082922 24.22210569 1.05459041 24.1527902 -2.04296875 23.4765625 C-4.91796875 20.7890625 -4.91796875 20.7890625 -7.04296875 17.4765625 C-7.64109375 16.6721875 -8.23921875 15.8678125 -8.85546875 15.0390625 C-10.45383967 11.58994631 -10.51323583 9.2386991 -10.04296875 5.4765625 C-7.66411489 0.81797369 -5.28818815 -0.37282217 0 0 Z " fill="#000000" transform="translate(319.04296875,185.5234375)"/>
<path d="M0 0 C0.66 -0.0103125 1.32 -0.020625 2 -0.03125 C5.04782397 0.77832824 6.15682414 1.94542293 8 4.5 C8.40100915 7.33065284 8.56122899 9.68346659 8.5 12.5 C8.51546875 13.2115625 8.5309375 13.923125 8.546875 14.65625 C8.52115187 18.10314984 8.25431936 20.14752229 6.21875 22.96875 C3.88020812 24.58267327 2.80290722 25.04379543 0 25 C-0.66 25.0103125 -1.32 25.020625 -2 25.03125 C-5.04782397 24.22167176 -6.15682414 23.05457707 -8 20.5 C-8.40100915 17.66934716 -8.56122899 15.31653341 -8.5 12.5 C-8.51546875 11.7884375 -8.5309375 11.076875 -8.546875 10.34375 C-8.52115187 6.89685016 -8.25431936 4.85247771 -6.21875 2.03125 C-3.88020812 0.41732673 -2.80290722 -0.04379543 0 0 Z " fill="#000000" transform="translate(336,407.5)"/>
<path d="M0 0 C0.66 -0.0103125 1.32 -0.020625 2 -0.03125 C5.04782397 0.77832824 6.15682414 1.94542293 8 4.5 C8.40100915 7.33065284 8.56122899 9.68346659 8.5 12.5 C8.51546875 13.2115625 8.5309375 13.923125 8.546875 14.65625 C8.52115187 18.10314984 8.25431936 20.14752229 6.21875 22.96875 C3.88020812 24.58267327 2.80290722 25.04379543 0 25 C-0.66 25.0103125 -1.32 25.020625 -2 25.03125 C-5.04782397 24.22167176 -6.15682414 23.05457707 -8 20.5 C-8.40100915 17.66934716 -8.56122899 15.31653341 -8.5 12.5 C-8.51546875 11.7884375 -8.5309375 11.076875 -8.546875 10.34375 C-8.52115187 6.89685016 -8.25431936 4.85247771 -6.21875 2.03125 C-3.88020812 0.41732673 -2.80290722 -0.04379543 0 0 Z " fill="#000000" transform="translate(336,375.5)"/>
</svg>
